<mxfile host="app.diagrams.net" modified="2023-11-09T09:53:56.495Z" agent="Mozilla/5.0 (Macintosh; Intel Mac OS X 10_15_7) AppleWebKit/537.36 (KHTML, like Gecko) Chrome/117.0.0.0 Safari/537.36" version="22.1.0" etag="gw-wvZblAh6Us0rIDEIg" type="github">
  <diagram name="Page-1" id="9ZYM29yMUed9_Fr-Z5xF">
    <mxGraphModel>
      <root>
        <mxCell id="0" />
        <mxCell id="1" parent="0" />
      </root>
    </mxGraphModel>
  </diagram>
</mxfile>
